<?xml version="1.0" encoding="utf-8"?>
<!-- Generator: Adobe Illustrator 19.1.0, SVG Export Plug-In . SVG Version: 6.00 Build 0)  -->
<svg version="1.1" id="Layer_1" xmlns="http://www.w3.org/2000/svg" xmlns:xlink="http://www.w3.org/1999/xlink" x="0px" y="0px"
	 viewBox="0 0 180 108" style="enable-background:new 0 0 180 108;" xml:space="preserve">
<style type="text/css">
	.st0{fill:#81B441;}
</style>
<g>
	<rect x="144" y="72.5" class="st0" width="0" height="0"/>
	<circle class="st0" cx="78" cy="42.5" r="12"/>
	<circle class="st0" cx="78" cy="42.5" r="12"/>
</g>
<g>
	<path class="st0" d="M132,72l-27.2-26.6L78.2,68.8L42,36.4L12,66.5V12h120v24h12V0H0v108h144V72.5V72H132z M132,96H12V82.6l30-30.7
		l36,32.6l26.8-24.2L132,87.5V96z"/>
	<polygon class="st0" points="162,48 162,30 150,30 150,48 144,48 132,48 132,60 144,60 145.4,60 150,60 150,78 162,78 162,60 
		180,60 180,48 	"/>
</g>
</svg>
