<svg xmlns="http://www.w3.org/2000/svg" xmlns:xlink="http://www.w3.org/1999/xlink" preserveAspectRatio="xMidYMid" width="109.34" height="109.37" viewBox="0 0 109.34 109.37">
  <defs>
    <style>
      .cls-1 {
        fill: #81b441;
        fill-rule: evenodd;
      }
    </style>
  </defs>
  <path d="M54.669,109.374 C24.480,109.374 0.008,84.895 0.008,54.692 C0.008,24.494 24.480,0.014 54.669,0.014 C84.857,0.014 109.330,24.494 109.330,54.692 C109.330,84.895 84.857,109.374 54.669,109.374 ZM54.669,7.305 C28.506,7.305 7.296,28.521 7.296,54.692 C7.296,80.865 28.506,102.083 54.669,102.083 C80.832,102.083 102.041,80.865 102.041,54.692 C102.041,28.521 80.832,7.305 54.669,7.305 ZM29.129,59.426 L34.237,54.226 L45.932,66.187 L75.100,36.525 L80.208,41.728 L45.917,76.598 L29.129,59.426 Z" class="cls-1"/>
</svg>
