<svg xmlns="http://www.w3.org/2000/svg" xmlns:xlink="http://www.w3.org/1999/xlink" preserveAspectRatio="xMidYMid" width="85.16" height="106.69" viewBox="0 0 85.16 106.69">
  <defs>
    <style>
      .cls-1 {
        fill: #81b441;
        fill-rule: evenodd;
      }
    </style>
  </defs>
  <path d="M85.143,106.680 L53.220,106.690 L60.314,99.567 L51.437,99.567 L44.371,106.651 L40.787,106.651 L33.721,99.567 L24.844,99.567 L31.938,106.680 L31.938,106.680 L0.015,106.680 L0.015,0.009 L60.314,0.009 L85.143,24.900 L85.143,106.680 ZM60.314,9.009 L60.314,24.900 L76.164,24.900 L60.314,9.009 ZM78.049,32.009 L53.220,32.009 L53.220,7.122 L7.109,7.122 L7.109,99.566 L33.721,99.566 L21.325,87.143 L26.636,81.821 L39.032,94.246 L39.032,56.899 L46.126,56.899 L46.126,94.246 L58.522,81.821 L63.834,87.143 L51.438,99.566 L78.049,99.566 L78.049,32.009 Z" class="cls-1"/>
</svg>
