<svg xmlns="http://www.w3.org/2000/svg" xmlns:xlink="http://www.w3.org/1999/xlink" preserveAspectRatio="xMidYMid" width="105.75" height="121.91" viewBox="0 0 105.75 121.91">
  <defs>
    <style>
      .cls-1 {
        fill: #81b441;
        fill-rule: evenodd;
      }
    </style>
  </defs>
  <path d="M105.756,109.686 L99.970,113.020 L99.843,113.451 L99.462,113.312 L99.089,113.526 L98.832,113.082 L81.438,106.770 L73.325,121.599 L67.229,121.900 L58.497,88.938 C56.647,89.175 54.795,89.409 52.880,89.409 C50.965,89.409 49.112,89.175 47.263,88.938 L38.531,121.900 L32.435,121.599 L24.195,106.391 L6.927,113.082 L6.671,113.526 L6.298,113.312 L5.916,113.451 L5.790,113.020 L0.003,109.686 L20.057,75.038 C12.664,67.068 8.109,56.432 8.109,44.710 C8.109,20.022 28.153,0.009 52.880,0.009 C77.606,0.009 97.651,20.022 97.651,44.710 C97.651,56.432 93.096,67.068 85.703,75.038 L105.756,109.686 ZM71.767,107.865 L77.882,97.347 L78.452,97.288 L93.223,103.393 L79.867,80.317 C75.831,83.372 71.240,85.698 66.308,87.262 L71.767,107.865 ZM12.537,103.393 L27.308,97.288 L27.878,97.347 L33.993,107.865 L39.452,87.262 C34.520,85.698 29.929,83.372 25.892,80.317 L12.537,103.393 ZM89.535,44.710 C89.535,24.499 73.124,8.110 52.880,8.110 C32.636,8.110 16.225,24.499 16.225,44.710 C16.225,64.922 32.636,81.306 52.880,81.306 C73.124,81.306 89.535,64.922 89.535,44.710 ZM48.810,65.027 L44.740,65.027 L44.740,56.902 L48.810,56.902 L48.810,32.516 L44.740,32.516 L44.740,24.391 L48.810,24.391 L52.880,24.391 L56.950,24.391 L56.950,56.902 L61.020,56.902 L61.020,65.027 L56.950,65.027 L48.810,65.027 Z" class="cls-1"/>
</svg>
