<svg xmlns="http://www.w3.org/2000/svg" xmlns:xlink="http://www.w3.org/1999/xlink" preserveAspectRatio="xMidYMid" width="114.688" height="114.72" viewBox="0 0 114.688 114.72">
  <defs>
    <style>
      .cls-1 {
        fill: #81b441;
        fill-rule: evenodd;
      }
    </style>
  </defs>
  <path d="M91.758,114.727 L91.758,99.429 L22.940,99.429 L22.940,114.727 L-0.000,114.727 L-0.000,-0.012 L22.940,-0.012 L22.940,15.286 L91.758,15.286 L91.758,-0.012 L114.698,-0.012 L114.698,114.727 L91.758,114.727 ZM15.293,7.638 L7.647,7.638 L7.647,15.286 L15.293,15.286 L15.293,7.638 ZM15.293,22.937 L7.647,22.937 L7.647,30.584 L15.293,30.584 L15.293,22.937 ZM15.293,38.235 L7.647,38.235 L7.647,45.882 L15.293,45.882 L15.293,38.235 ZM15.293,53.534 L7.647,53.534 L7.647,61.181 L15.293,61.181 L15.293,53.534 ZM15.293,68.832 L7.647,68.832 L7.647,76.480 L15.293,76.480 L15.293,68.832 ZM15.293,84.130 L7.647,84.130 L7.647,91.777 L15.293,91.777 L15.293,84.130 ZM15.293,99.429 L7.647,99.429 L7.647,107.076 L15.293,107.076 L15.293,99.429 ZM91.758,22.937 L22.940,22.937 L22.940,91.777 L91.758,91.777 L91.758,22.937 ZM107.051,7.638 L99.405,7.638 L99.405,15.286 L107.051,15.286 L107.051,7.638 ZM107.051,22.937 L99.405,22.937 L99.405,30.584 L107.051,30.584 L107.051,22.937 ZM107.051,38.235 L99.405,38.235 L99.405,45.882 L107.051,45.882 L107.051,38.235 ZM107.051,53.534 L99.405,53.534 L99.405,61.181 L107.051,61.181 L107.051,53.534 ZM107.051,68.832 L99.405,68.832 L99.405,76.480 L107.051,76.480 L107.051,68.832 ZM107.051,84.130 L99.405,84.130 L99.405,91.777 L107.051,91.777 L107.051,84.130 ZM107.051,99.429 L99.405,99.429 L99.405,107.076 L107.051,107.076 L107.051,99.429 ZM57.349,30.584 C72.130,30.584 84.112,42.571 84.112,57.357 C84.112,72.144 72.130,84.130 57.349,84.130 C42.568,84.130 30.586,72.144 30.586,57.357 C30.586,42.571 42.568,30.584 57.349,30.584 ZM57.349,76.464 C67.898,76.464 76.450,67.909 76.450,57.357 C76.450,46.804 67.898,38.249 57.349,38.249 C46.799,38.249 38.248,46.804 38.248,57.357 C38.248,67.909 46.799,76.464 57.349,76.464 ZM61.106,45.825 L61.172,68.832 L53.526,68.832 L53.526,57.357 L53.526,53.568 C53.606,53.484 53.640,53.442 53.526,53.534 L49.702,53.534 L49.702,49.709 L55.782,45.825 L61.106,45.825 ZM53.526,53.534 L53.526,53.568 C53.313,53.788 52.744,54.315 53.526,53.534 Z" class="cls-1"/>
</svg>
