<svg xmlns="http://www.w3.org/2000/svg" xmlns:xlink="http://www.w3.org/1999/xlink" preserveAspectRatio="xMidYMid" width="110.22" height="110.25" viewBox="0 0 110.22 110.25">
  <defs>
    <style>
      .cls-1 {
        fill: #81b441;
        fill-rule: evenodd;
      }
    </style>
  </defs>
  <path d="M102.872,36.763 L102.872,25.738 C102.872,15.589 94.648,7.362 84.503,7.362 C74.357,7.362 66.133,15.589 66.133,25.738 L66.133,44.113 L88.176,44.113 L88.176,110.265 L0.002,110.265 L0.002,44.113 L58.785,44.113 L58.785,25.738 C58.785,11.530 70.299,0.010 84.503,0.010 C98.706,0.010 110.220,11.530 110.220,25.738 L110.220,36.763 L102.872,36.763 ZM7.350,51.461 L7.350,102.917 L80.828,102.917 L80.828,51.461 L7.350,51.461 ZM47.763,76.170 L47.763,91.890 L40.415,91.890 L40.415,76.170 C38.228,74.897 36.741,72.553 36.741,69.839 C36.741,65.780 40.031,62.489 44.089,62.489 C48.147,62.489 51.437,65.780 51.437,69.839 C51.437,72.553 49.950,74.897 47.763,76.170 Z" class="cls-1"/>
</svg>
