<svg xmlns="http://www.w3.org/2000/svg" xmlns:xlink="http://www.w3.org/1999/xlink" preserveAspectRatio="xMidYMid" width="154" height="123" viewBox="0 0 154 123">
  <defs>
    <style>
      .cls-1 {
        fill: #81b441;
        fill-rule: evenodd;
      }
    </style>
  </defs>
  <path d="M154.000,43.676 L92.455,87.339 L92.455,60.689 C67.821,60.695 44.982,62.903 25.666,97.401 C25.666,75.485 29.281,26.229 92.455,25.616 L92.455,0.013 L154.000,43.676 ZM92.345,35.883 C66.212,35.101 48.651,45.213 36.575,70.325 C54.511,46.600 97.588,51.434 102.666,51.269 L102.666,67.766 L137.477,43.259 L102.666,19.399 L102.666,35.894 L92.345,35.883 ZM35.933,35.894 L10.266,35.894 L10.266,112.761 L118.066,112.761 L118.066,81.375 L128.333,73.683 L128.333,123.009 L-0.000,123.009 L-0.000,25.646 L51.333,25.646 C51.333,25.646 46.150,27.599 42.276,30.177 C38.450,32.726 35.933,35.894 35.933,35.894 Z" class="cls-1"/>
</svg>
