<svg xmlns="http://www.w3.org/2000/svg" xmlns:xlink="http://www.w3.org/1999/xlink" preserveAspectRatio="xMidYMid" width="112.906" height="112.93" viewBox="0 0 112.906 112.93">
  <defs>
    <style>
      .cls-1 {
        fill: #81b441;
        fill-rule: evenodd;
      }
    </style>
  </defs>
  <path d="M109.821,74.733 C107.985,72.695 105.369,71.528 105.369,71.528 L105.369,67.764 L105.369,60.234 L105.369,7.527 L79.971,7.527 C82.804,19.919 92.349,29.741 104.647,32.826 C103.249,37.740 100.252,44.953 97.969,56.468 C95.521,68.820 95.649,67.764 95.649,67.764 L86.663,67.764 C88.509,60.633 91.044,51.477 94.238,41.409 C94.656,40.092 95.087,38.802 95.524,37.526 C90.257,35.040 85.657,31.410 81.904,27.024 C79.439,28.822 71.235,33.881 56.443,33.881 C41.101,33.881 33.551,29.128 31.096,27.194 C27.337,31.503 22.753,35.072 17.510,37.526 C17.951,38.802 18.386,40.092 18.808,41.409 C22.028,51.477 24.585,60.633 26.447,67.764 L17.303,67.764 C16.715,64.828 15.962,61.058 15.044,56.468 C12.740,44.943 9.713,37.716 8.305,32.810 C20.572,29.705 30.087,19.897 32.915,7.527 L7.517,7.527 L7.517,71.411 C7.517,71.411 4.709,72.691 2.931,74.941 C1.198,77.133 -0.010,79.999 -0.010,79.999 L-0.010,-0.003 L-0.010,-0.003 C68.028,-0.003 106.240,-0.003 112.896,-0.003 L112.896,-0.003 C112.399,-0.003 111.989,-0.003 111.552,-0.003 C112.370,-0.003 112.896,-0.003 112.896,-0.003 L112.896,60.234 L112.896,67.764 L112.896,79.882 C112.896,79.882 111.747,76.868 109.821,74.733 ZM72.558,7.527 L71.497,7.527 L40.672,7.527 C39.709,12.762 37.738,17.632 35.013,21.980 C39.145,24.043 46.003,26.351 56.443,26.351 C66.717,26.351 73.783,23.875 78.020,21.760 C75.391,17.469 73.496,12.670 72.558,7.527 ZM94.177,75.306 C96.084,75.306 98.305,75.897 100.614,77.598 C105.110,80.905 105.369,85.228 105.369,86.588 C105.369,87.915 105.098,89.169 104.678,90.352 L109.133,90.352 L109.133,112.942 L79.024,112.942 L79.024,90.352 L83.479,90.352 C83.059,89.169 82.788,87.915 82.788,86.588 C82.788,85.546 83.196,80.976 87.322,77.573 C89.947,75.407 94.177,75.306 94.177,75.306 ZM94.078,82.824 L94.078,82.824 C92.000,82.824 90.315,84.510 90.315,86.588 C90.315,88.667 92.000,90.352 94.078,90.352 C96.157,90.352 97.842,88.667 97.842,86.588 C97.842,84.510 96.157,82.824 94.078,82.824 ZM86.551,105.412 L101.606,105.412 L101.606,97.884 L86.551,97.884 L86.551,105.412 ZM94.196,75.294 L94.177,75.306 C101.332,76.249 94.196,75.294 94.196,75.294 ZM7.517,86.588 C7.517,85.528 7.636,80.605 11.867,77.596 C16.240,74.483 21.460,74.614 25.495,77.453 C29.789,80.475 30.098,85.706 30.098,86.588 C30.098,87.915 29.827,89.169 29.407,90.352 L33.862,90.352 L33.862,112.942 L3.754,112.942 L3.754,90.352 L8.209,90.352 C7.788,89.169 7.517,87.915 7.517,86.588 ZM18.808,82.824 L18.808,82.824 C16.729,82.824 15.044,84.510 15.044,86.588 C15.044,88.667 16.729,90.352 18.808,90.352 C20.886,90.352 22.571,88.667 22.571,86.588 C22.571,84.510 20.886,82.824 18.808,82.824 ZM11.281,105.412 L26.335,105.412 L26.335,97.884 L11.281,97.884 L11.281,105.412 ZM45.153,86.588 C45.153,80.350 50.208,75.294 56.443,75.294 C62.679,75.294 67.734,80.350 67.734,86.588 C67.734,87.915 67.463,89.169 67.042,90.352 L71.497,90.352 L71.497,112.942 L41.389,112.942 L41.389,90.352 L45.844,90.352 C45.424,89.169 45.153,87.915 45.153,86.588 ZM56.443,82.824 C54.365,82.824 52.680,84.510 52.680,86.588 C52.680,88.667 54.365,90.352 56.443,90.352 C58.522,90.352 60.207,88.667 60.207,86.588 C60.207,84.510 58.522,82.824 56.443,82.824 ZM48.916,105.412 L63.970,105.412 L63.970,97.884 L48.916,97.884 L48.916,105.412 Z" class="cls-1"/>
</svg>
